<mxfile host="app.diagrams.net" modified="2024-07-11T07:29:20.184Z" agent="Mozilla/5.0 (Windows NT 10.0; Win64; x64) AppleWebKit/537.36 (KHTML, like Gecko) Chrome/126.0.0.0 Safari/537.36 Edg/126.0.0.0" etag="_SEwurMtbRnVFflhA5cB" version="24.6.4" type="github">
  <diagram name="페이지-1" id="0EeRpHEk2xULAdZmibqy">
    <mxGraphModel dx="895" dy="580" grid="1" gridSize="10" guides="1" tooltips="1" connect="1" arrows="1" fold="1" page="1" pageScale="1" pageWidth="827" pageHeight="1169" math="0" shadow="0">
      <root>
        <mxCell id="0" />
        <mxCell id="1" parent="0" />
        <mxCell id="6" value="Transition to Active state" style="curved=1;startArrow=none;;exitX=0.375;exitY=-0.037;entryX=0.767;entryY=0.963;entryDx=0;entryDy=0;entryPerimeter=0;exitDx=0;exitDy=0;exitPerimeter=0;" parent="1" source="ac_UnA5JJuFJ3JrcLMp0-11" target="ac_UnA5JJuFJ3JrcLMp0-10" edge="1">
          <mxGeometry relative="1" as="geometry">
            <Array as="points">
              <mxPoint x="398" y="124" />
            </Array>
            <mxPoint x="414.24" y="158" as="sourcePoint" />
            <mxPoint x="346.4000000000001" y="94" as="targetPoint" />
          </mxGeometry>
        </mxCell>
        <mxCell id="7" value="Transition to Safe state" style="curved=1;startArrow=none;;exitX=0.033;exitY=0.663;entryX=0.225;entryY=0.075;exitDx=0;exitDy=0;entryDx=0;entryDy=0;exitPerimeter=0;entryPerimeter=0;" parent="1" source="ac_UnA5JJuFJ3JrcLMp0-10" target="ac_UnA5JJuFJ3JrcLMp0-12" edge="1">
          <mxGeometry x="-0.2482" y="13" relative="1" as="geometry">
            <Array as="points">
              <mxPoint x="170" y="150" />
              <mxPoint x="140" y="230" />
            </Array>
            <mxPoint x="260" y="72" as="sourcePoint" />
            <mxPoint x="277" y="278" as="targetPoint" />
            <mxPoint as="offset" />
          </mxGeometry>
        </mxCell>
        <mxCell id="8" value="Transition to Safe state" style="curved=1;startArrow=none;;exitX=0.25;exitY=1;entryX=1.008;entryY=0.338;exitDx=0;exitDy=0;exitPerimeter=0;entryDx=0;entryDy=0;entryPerimeter=0;" parent="1" source="ac_UnA5JJuFJ3JrcLMp0-11" target="ac_UnA5JJuFJ3JrcLMp0-12" edge="1">
          <mxGeometry relative="1" as="geometry">
            <Array as="points">
              <mxPoint x="430" y="280" />
              <mxPoint x="410" y="300" />
              <mxPoint x="390" y="310" />
            </Array>
            <mxPoint x="357.29999999999995" y="192" as="sourcePoint" />
            <mxPoint x="277" y="264.66666666666663" as="targetPoint" />
          </mxGeometry>
        </mxCell>
        <mxCell id="ac_UnA5JJuFJ3JrcLMp0-10" value="ACTIVE" style="ellipse;whiteSpace=wrap;html=1;" vertex="1" parent="1">
          <mxGeometry x="240" y="30" width="120" height="80" as="geometry" />
        </mxCell>
        <mxCell id="ac_UnA5JJuFJ3JrcLMp0-11" value="STANDBY" style="ellipse;whiteSpace=wrap;html=1;" vertex="1" parent="1">
          <mxGeometry x="400" y="150" width="120" height="80" as="geometry" />
        </mxCell>
        <mxCell id="ac_UnA5JJuFJ3JrcLMp0-12" value="SAFE" style="ellipse;whiteSpace=wrap;html=1;" vertex="1" parent="1">
          <mxGeometry x="220" y="300" width="120" height="80" as="geometry" />
        </mxCell>
      </root>
    </mxGraphModel>
  </diagram>
</mxfile>
